<svg xmlns="http://www.w3.org/2000/svg" xmlns:xlink="http://www.w3.org/1999/xlink" width="500" zoomAndPan="magnify" viewBox="0 0 375 374.999991" height="500" preserveAspectRatio="xMidYMid meet" version="1.0"><defs><g/></defs><g fill="#000000" fill-opacity="1"><g transform="translate(153.594035, 223.235235)"><g><path d="M 58.59375 -64.625 C 58.59375 -60.507812 58.28125 -56.484375 57.65625 -52.546875 C 57.03125 -48.617188 55.753906 -45.09375 53.828125 -41.96875 C 51.910156 -38.84375 49.070312 -36.425781 45.3125 -34.71875 L 58.453125 0 L 39.953125 0 L 27.75 -32.453125 L 25.34375 -32.453125 L 25.34375 0 L 8.046875 0 L 8.046875 -93.984375 L 33.921875 -93.984375 C 50.367188 -93.984375 58.59375 -84.195312 58.59375 -64.625 Z M 32.453125 -49.078125 C 33.609375 -49.078125 34.878906 -49.566406 36.265625 -50.546875 C 37.648438 -51.523438 38.832031 -53.085938 39.8125 -55.234375 C 40.800781 -57.378906 41.296875 -60.285156 41.296875 -63.953125 C 41.296875 -68.867188 40.265625 -72.3125 38.203125 -74.28125 C 36.148438 -76.25 34.007812 -77.234375 31.78125 -77.234375 L 25.34375 -77.234375 L 25.34375 -49.078125 Z M 32.453125 -49.078125 "/></g></g></g><g fill="#000000" fill-opacity="1"><g transform="translate(18.912558, 243.916225)"><g><path d="M 82.8125 -22.5 C 92.101562 -23.082031 100.804688 -24.71875 108.921875 -27.40625 C 117.035156 -30.101562 123.820312 -33.597656 129.28125 -37.890625 L 139.921875 -24.453125 C 133.097656 -19.003906 124.796875 -14.609375 115.015625 -11.265625 C 105.242188 -7.929688 94.867188 -5.921875 83.890625 -5.234375 C 73.273438 -4.566406 63.296875 -5.148438 53.953125 -6.984375 C 44.617188 -8.816406 36.363281 -11.640625 29.1875 -15.453125 C 22.007812 -19.273438 16.304688 -23.890625 12.078125 -29.296875 C 7.847656 -34.710938 5.523438 -40.722656 5.109375 -47.328125 C 4.691406 -53.929688 6.25 -60.1875 9.78125 -66.09375 C 13.3125 -72.007812 18.398438 -77.296875 25.046875 -81.953125 C 31.691406 -86.617188 39.53125 -90.441406 48.5625 -93.421875 C 57.601562 -96.410156 67.429688 -98.238281 78.046875 -98.90625 C 89.023438 -99.59375 99.570312 -98.882812 109.6875 -96.78125 C 119.8125 -94.675781 128.59375 -91.394531 136.03125 -86.9375 L 127.03125 -72.140625 C 121.070312 -75.796875 113.921875 -78.4375 105.578125 -80.0625 C 97.234375 -81.695312 88.414062 -82.222656 79.125 -81.640625 C 72.175781 -81.203125 65.285156 -80.054688 58.453125 -78.203125 C 51.628906 -76.347656 45.445312 -73.925781 39.90625 -70.9375 C 34.375 -67.945312 30 -64.535156 26.78125 -60.703125 C 23.570312 -56.878906 22.101562 -52.78125 22.375 -48.40625 C 22.644531 -44.039062 24.609375 -40.15625 28.265625 -36.75 C 31.929688 -33.351562 36.695312 -30.519531 42.5625 -28.25 C 48.4375 -25.976562 54.875 -24.34375 61.875 -23.34375 C 68.882812 -22.34375 75.863281 -22.0625 82.8125 -22.5 Z M 82.8125 -22.5 "/></g></g></g><g fill="#000000" fill-opacity="1"><g transform="translate(216.821798, 223.235235)"><g><path d="M 25.34375 0 L 8.046875 0 L 8.046875 -93.859375 L 25.34375 -93.859375 Z M 25.34375 0 "/></g></g></g><g fill="#000000" fill-opacity="1"><g transform="translate(216.807485, 195.797638)"><g><path d="M 8.046875 -76.5625 L 8.046875 -93.859375 L 143.46875 -93.859375 L 143.46875 -76.5625 L 84.46875 -76.5625 L 84.46875 0 L 67.171875 0 L 67.171875 -76.5625 Z M 8.046875 -76.5625 "/></g></g></g></svg>